<svg width="117" height="50" viewBox="0 0 117 50" fill="none" xmlns="http://www.w3.org/2000/svg">
<path d="M12.4911 10.6002H8.48926V38.5661H12.4911V10.6002Z" fill="#1976D2"/>
<path d="M102.988 10.6058L102.653 10.5355V14.6989L102.86 14.758C107.219 15.9808 110.266 20.0234 110.266 24.5831C110.266 29.1429 107.219 33.1854 102.86 34.4083L102.653 34.4674V38.6308L102.991 38.5605C109.545 37.2083 114.304 31.33 114.304 24.5831C114.301 17.8362 109.545 11.958 102.988 10.6058Z" fill="#1976D2"/>
<path d="M100.989 10.6002H96.9873V38.6308H100.989V10.6002Z" fill="#1976D2"/>
<path d="M90.4802 20.3692C88.5868 18.6881 86.1824 17.7716 83.6355 17.7716C77.9218 17.7716 73.2749 22.4495 73.2749 28.2012C73.2749 33.9529 77.9246 38.6308 83.6355 38.6308C86.1796 38.6308 88.5868 37.7115 90.4802 36.0304V38.6308H94.0687V17.7716H90.4802V20.3692ZM83.6383 35.0184C79.9018 35.0184 76.8634 31.9598 76.8634 28.1984C76.8634 24.4398 79.9018 21.3812 83.6383 21.3812C87.372 21.3812 90.4132 24.4398 90.4132 28.1984C90.4104 31.9598 87.372 35.0184 83.6383 35.0184Z" fill="#1976D2"/>
<path d="M62.9118 17.5467C57.36 15.7334 51.4174 18.7274 49.4877 24.2233L49.4737 24.2177L49.3871 24.4875L49.3006 24.7574L49.3145 24.763C47.6697 30.3517 50.7443 36.2918 56.2821 38.1022C56.9495 38.3215 57.6281 38.4677 58.3095 38.552C61.6914 38.9596 65.1403 37.7199 67.5 35.1392L67.796 34.8131L63.7998 33.5087L63.6853 33.593C61.8729 34.8918 59.5327 35.2517 57.4271 34.5657C53.8274 33.3878 51.8167 29.5505 52.8332 25.9156L69.7229 31.434L69.8095 31.167C71.6331 25.4939 68.5417 19.3852 62.9118 17.5467ZM54.7154 22.7305C56.5781 20.9257 59.2953 20.2763 61.7696 21.086C64.241 21.8928 66.0646 24.0265 66.5198 26.5875L54.7154 22.7305Z" fill="#1976D2"/>
<path d="M36.5411 28.6144L42.1793 38.6308H46.5833L40.5233 27.8751C43.8158 26.4357 45.927 23.2141 45.927 19.5848C45.927 14.5949 41.8973 10.5355 36.9404 10.5355C35.491 10.5355 34.0473 10.9066 32.7347 11.6178V10.7576H28.7329V38.6279H32.7347V16.9029C33.6619 15.4186 35.2285 14.5359 36.9404 14.5359C39.7051 14.5359 41.9531 16.7989 41.9531 19.582C41.9531 22.3623 39.7051 24.5522 36.9404 24.6253C35.0414 24.6759 33.9411 24.1221 33.9411 24.1221V28.0522L36.5411 28.6144Z" fill="#1976D2"/>
<path d="M25.4767 10.6058L25.8146 10.5355V14.6989L25.6079 14.758C21.2487 15.9808 18.2019 20.0234 18.2019 24.5831C18.2019 29.1429 21.2487 33.1854 25.6079 34.4083L25.8146 34.4674V38.6308L25.4767 38.5605C18.9224 37.2083 14.1638 31.33 14.1638 24.5831C14.1638 17.8362 18.9224 11.958 25.4767 10.6058Z" fill="#1976D2"/>
</svg>
