<svg width="50" height="50" viewBox="0 0 50 50" fill="none" xmlns="http://www.w3.org/2000/svg">
<path d="M22.6686 2.69815L46.991 19.7289C47.2172 19.8873 47.2722 20.1991 47.1138 20.4253L40.3418 30.0966C40.1835 30.3228 39.8717 30.3777 39.6455 30.2194L15.3231 13.1886C15.0969 13.0302 15.0419 12.7184 15.2003 12.4922L21.9722 2.82094C22.1306 2.59473 22.4424 2.53976 22.6686 2.69815Z" stroke="#222222" stroke-width="3"/>
<path d="M18.274 16.0237L35.9727 28.4164C36.1989 28.5748 36.2539 28.8866 36.0955 29.1128L32.4967 34.2523C32.3383 34.4785 32.0266 34.5335 31.8004 34.3751L14.1017 21.9824C13.8755 21.824 13.8205 21.5122 13.9789 21.286L17.5777 16.1465C17.7361 15.9203 18.0478 15.8653 18.274 16.0237Z" stroke="#222222" stroke-width="3"/>
<path d="M18.1793 25.878L26.4023 31.6358C26.6285 31.7941 26.6835 32.1059 26.5251 32.3321L22.6197 37.9096C22.4966 38.0854 22.275 38.1631 22.0691 38.1025L11.9066 35.1146C11.5786 35.0181 11.4419 34.6282 11.6381 34.3481L17.4829 26.0007C17.6413 25.7745 17.9531 25.7196 18.1793 25.878Z" fill="#FEFA53" stroke="#222222" stroke-width="3"/>
<path d="M25.2674 41.9469C27.7562 41.0138 35.5956 36.0985 34.7381 41.8347C33.9998 46.7739 39.2467 43.672 42.4576 41.9382" stroke="black" stroke-width="3" stroke-linecap="round"/>
</svg>
