<svg width="46" height="58" viewBox="0 0 46 58" fill="none" xmlns="http://www.w3.org/2000/svg">
<path d="M6.68051 21.7054C6.68051 20.3625 7.53507 19.2739 8.58923 19.2739H15.2697V38.7259H8.58923C7.53507 38.7259 6.68051 37.6373 6.68051 36.2944V21.7054Z" fill="#BDBDBD"/>
<path d="M32.6127 8.67901L14.7629 19.0148C14.4904 19.1726 14.3154 19.5188 14.3154 19.9002V38.0996C14.3154 38.481 14.4904 38.8272 14.7629 38.9851L32.6127 49.3208C33.8764 50.0526 35.3112 48.8757 35.3112 47.1073V10.8926C35.3112 9.12416 33.8764 7.94724 32.6127 8.67901Z" fill="#EDEDED"/>
<path d="M35.3112 24.1369H37.2199C38.2741 24.1369 39.1286 25.2255 39.1286 26.5684V31.4314C39.1286 32.7743 38.2741 33.8629 37.2199 33.8629H35.3112V24.1369Z" fill="#BDBDBD"/>
</svg>
