<svg width="40" height="28" viewBox="0 0 40 28" fill="none" xmlns="http://www.w3.org/2000/svg">
<path d="M38.5695 11.8199C36.7233 8.41343 31.2169 0.5 20 0.5C8.78315 0.5 3.27669 8.41343 1.43048 11.8199C0.689841 13.1929 0.689841 14.8175 1.43048 16.1906C3.27669 19.5866 8.79388 27.5 20 27.5C31.2061 27.5 36.7126 19.597 38.5695 16.1906C39.3102 14.828 39.3102 13.1929 38.5695 11.8199ZM35.7251 14.7127C34.1472 17.6056 29.4565 24.3451 20 24.3451C10.5435 24.3451 5.85281 17.6056 4.27494 14.7127C4.02806 14.2725 4.02806 13.738 4.27494 13.2977C5.85281 10.3944 10.5328 3.65489 20 3.65489C29.4672 3.65489 34.1472 10.4049 35.7251 13.2977C35.9719 13.738 35.9612 14.2725 35.7251 14.7127ZM20 6.0132C15.4918 6.0132 11.8208 9.59783 11.8208 14C11.8208 18.4022 15.4918 21.9868 20 21.9868C24.5082 21.9868 28.1792 18.4022 28.1792 14C28.1792 9.59783 24.5082 6.0132 20 6.0132ZM20 18.8424C17.2629 18.8424 15.041 16.6727 15.041 14C15.041 11.3273 17.2629 9.15761 20 9.15761C22.7371 9.15761 24.959 11.3273 24.959 14C24.959 16.6727 22.7371 18.8424 20 18.8424Z" fill="#222222"/>
<path d="M25.625 14.781C25.625 17.8145 23.1066 20.2737 20 20.2737C16.8934 20.2737 14.375 17.8145 14.375 14.781C14.375 11.7474 16.8934 8.18974 20 8.18974C23.1066 8.18974 25.625 11.7474 25.625 14.781Z" fill="#222222"/>
</svg>
