<svg width="27" height="27" viewBox="0 0 27 27" fill="none" xmlns="http://www.w3.org/2000/svg">
<path fill-rule="evenodd" clip-rule="evenodd" d="M11.1479 12.5701C11.7913 13.0757 12.167 13.8487 12.167 14.667V23.5685L14.8337 22.6302V14.667C14.8337 13.8487 15.2094 13.0757 15.8528 12.5701L23.6574 6.43794C23.9791 6.18516 24.167 5.79867 24.167 5.38952V3.33366H2.83366V5.38952C2.83366 5.79867 3.02151 6.18516 3.34323 6.43794L11.1479 12.5701ZM25.3049 8.53479L17.5003 14.667V23.5745C17.5003 24.1403 17.1432 24.6445 16.6095 24.8323L11.2762 26.7088C10.4089 27.014 9.50033 26.3705 9.50033 25.4511V14.667L1.69571 8.53479C0.730545 7.77645 0.166992 6.61696 0.166992 5.38952V3.33366C0.166992 1.8609 1.3609 0.666992 2.83366 0.666992H24.167C25.6398 0.666992 26.8337 1.8609 26.8337 3.33366V5.38952C26.8337 6.61696 26.2701 7.77645 25.3049 8.53479Z" fill="#616161"/>
</svg>
